<svg width="127" height="156" viewBox="0 0 127 156" fill="none" xmlns="http://www.w3.org/2000/svg">
<path d="M115.939 69.2984V74.2536C115.939 84.0165 110.844 92.5453 102.354 97.2794C102.169 97.1321 102.169 97.1321 101.985 96.9847C102.797 95.2347 104.107 91.6979 104.107 85.6375C104.107 72.872 93.051 65.6142 84.8558 62.2433L57.6676 51.0435C53.6254 49.3856 49.8416 45.3146 51.6873 40.1384C54.7882 31.4623 65.6414 31.0202 74.298 35.0175C86.4432 40.6358 96.3365 45.462 102.889 48.5935C110.881 52.425 115.957 60.4933 115.957 69.3352L115.939 69.2984ZM14.772 92.8032C14.772 93.9269 15.3996 94.9032 16.3409 95.3821L51.0782 115.755C57.6861 119.624 65.8628 119.734 72.5445 115.995C77.7865 113.084 83.6191 109.879 84.5605 109.327C95.5428 102.898 99.7511 94.6637 99.7511 85.0849C99.7511 74.8246 89.9501 68.6537 82.5117 65.6327L82.2533 66.0379C83.9144 67.6405 86.3509 70.2194 86.3509 75.1562C86.3509 84.3481 77.8788 93.7426 62.9834 93.7426C46.6115 93.7426 39.4868 83.0218 27.7108 83.0218C22.6165 83.0218 14.772 86.8349 14.772 92.4716V92.7663V92.8032ZM112.598 27.0045C112.598 25.8624 112.007 24.8493 111.121 24.2598L76.0699 3.07599C69.4805 -0.829195 61.3038 -0.95814 54.5852 2.74442L25.662 18.6967C16.6547 23.6703 11.062 33.1386 11.062 43.3989V50.6566C11.062 58.7617 15.4549 67.1247 24.1485 71.3983C29.9811 74.2536 32.5467 75.3588 34.6325 76.3904L34.9647 76.0588C31.2178 69.8694 29.5935 62.5564 29.5935 57.4539C29.5935 39.8069 42.3478 24.7756 61.8391 24.7756C77.4912 24.7756 89.0272 38.2964 100.434 38.2964C108.795 38.2964 112.616 31.0202 112.616 27.6492V27.0045H112.598ZM50.3953 58.0986C41.0742 54.0092 38.6193 44.8541 40.0959 39.42L39.6529 39.199C36.349 43.4726 33.9495 49.1093 33.9495 57.1223C33.9495 70.3115 43.1784 86.2454 60.9162 86.2454C67.4687 86.2454 72.7845 81.1245 72.7845 74.8062C72.7845 69.8878 69.4436 65.8537 65.0322 64.0853C61.3592 62.6117 54.013 59.6828 50.3953 58.0986Z" fill="black"/>
<path d="M11.8708 145.69C11.1694 145.156 10.0804 144.585 8.58533 143.958C7.25637 143.406 6.35195 142.982 5.83513 142.65C5.31832 142.319 4.96762 141.969 4.74613 141.582C4.52464 141.214 4.41389 140.753 4.41389 140.237C4.41389 139.464 4.69076 138.856 5.24449 138.395C5.79822 137.935 6.61036 137.695 7.6809 137.695C9.10214 137.695 10.708 138.082 12.5168 138.837L13.5689 136.129C11.6493 135.282 9.71124 134.858 7.75473 134.858C5.79822 134.858 4.11857 135.337 2.90036 136.314C1.70062 137.29 1.09151 138.616 1.09151 140.311C1.09151 141.656 1.47912 142.816 2.23589 143.774C2.99265 144.732 4.30315 145.598 6.14891 146.334C7.93931 147.053 9.13906 147.679 9.71125 148.213C10.2834 148.748 10.5788 149.374 10.5788 150.148C10.5788 150.995 10.265 151.658 9.63741 152.155C9.00985 152.653 8.05005 152.911 6.7211 152.911C5.81668 152.911 4.85688 152.782 3.80479 152.542C2.77116 152.284 1.77445 151.953 0.851563 151.511L0.851563 154.642C2.30972 155.361 4.1924 155.711 6.49961 155.711C8.80682 155.711 10.5972 155.195 11.9077 154.163C13.2182 153.132 13.8642 151.732 13.8642 149.927C13.8642 149.005 13.6981 148.213 13.3843 147.55C13.0521 146.869 12.5537 146.279 11.8523 145.727L11.8708 145.69Z" fill="black"/>
<path d="M88.673 145.69C87.9717 145.156 86.8826 144.585 85.3876 143.958C84.0586 143.406 83.1542 142.982 82.6374 142.65C82.1206 142.319 81.7699 141.969 81.5484 141.582C81.3269 141.214 81.2161 140.753 81.2161 140.237C81.2161 139.464 81.493 138.856 82.0467 138.395C82.6005 137.935 83.4126 137.695 84.4831 137.695C85.9044 137.695 87.5102 138.082 89.3191 138.837L90.3711 136.129C88.4515 135.282 86.5135 134.858 84.557 134.858C82.6005 134.858 80.9208 135.337 79.7026 136.314C78.5029 137.29 77.8938 138.616 77.8938 140.311C77.8938 141.656 78.2814 142.816 79.0381 143.774C79.7949 144.732 81.1054 145.598 82.9512 146.334C84.7416 147.053 85.9413 147.679 86.5135 148.213C87.0857 148.748 87.381 149.374 87.381 150.148C87.381 150.995 87.0672 151.658 86.4397 152.155C85.8121 152.653 84.8523 152.911 83.5233 152.911C82.6189 152.911 81.6591 152.782 80.607 152.542C79.5734 152.284 78.5767 151.953 77.6538 151.511V154.642C79.112 155.361 80.9947 155.711 83.3019 155.711C85.6091 155.711 87.3995 155.195 88.71 154.163C90.0205 153.132 90.6665 151.732 90.6665 149.927C90.6665 149.005 90.5004 148.213 90.1866 147.55C89.8543 146.869 89.356 146.279 88.6546 145.727L88.673 145.69Z" fill="black"/>
<path d="M33.208 139.776C32.1375 139.776 31.1961 139.997 30.3655 140.421C29.5349 140.844 28.9074 141.434 28.4459 142.189H28.2245C27.4492 140.587 25.8988 139.776 23.5362 139.776C22.5579 139.776 21.672 139.979 20.8598 140.366C20.0477 140.771 19.4386 141.323 19.0141 142.06H18.848L18.3865 140.052H15.8394L15.8394 155.378H19.1064V147.734C19.1064 145.837 19.4017 144.473 19.9923 143.644C20.583 142.834 21.5059 142.41 22.761 142.41C23.7023 142.41 24.4037 142.705 24.8467 143.276C25.2897 143.847 25.5112 144.731 25.5112 145.91V155.36H28.7966V147.236C28.7966 145.597 29.092 144.381 29.6826 143.589C30.2733 142.797 31.1961 142.41 32.4697 142.41C33.4111 142.41 34.1125 142.705 34.5554 143.276C34.9984 143.847 35.2199 144.731 35.2199 145.91V155.36H38.4869V145.358C38.4869 143.46 38.0624 142.06 37.2318 141.121C36.4012 140.2 35.0538 139.739 33.2265 139.739L33.208 139.776Z" fill="black"/>
<path d="M62.1141 140.587C61.302 141.121 60.6375 141.839 60.1207 142.76H59.9546L59.5301 140.053H56.9829V155.379H60.2499V147.366C60.2499 146.002 60.656 144.897 61.4681 144.05C62.2803 143.202 63.3324 142.503 64.6428 142.503H66.4148V139.905C65.9903 139.813 65.455 139.758 64.7905 139.758C63.8492 139.758 62.9632 140.034 62.1511 140.568L62.1141 140.587Z" fill="black"/>
<path d="M71.8395 152.468C71.4519 152.099 71.2488 151.51 71.2488 150.736V142.521H75.6233V140.052H71.2488V136.645H67.9634V150.792C67.9634 154.052 69.5138 155.673 72.5963 155.673C73.2054 155.673 73.796 155.618 74.3682 155.507C74.9404 155.397 75.4018 155.268 75.771 155.12V152.671C74.9773 152.928 74.1836 153.039 73.3899 153.039C72.7439 153.039 72.2271 152.855 71.8395 152.486V152.468Z" fill="black"/>
<path d="M98.8052 139.776C96.4796 139.776 94.6707 140.476 93.3971 141.876C92.1236 143.276 91.4775 145.21 91.4775 147.697C91.4775 149.3 91.7729 150.7 92.3635 151.916C92.9542 153.131 93.8032 154.052 94.9107 154.697C96.0181 155.342 97.2732 155.673 98.7129 155.673C101.002 155.673 102.792 154.973 104.084 153.573C105.376 152.173 106.022 150.221 106.022 147.716C106.022 145.21 105.376 143.368 104.084 141.95C102.792 140.513 101.02 139.813 98.8052 139.813V139.776ZM98.7683 153.002C96.1473 153.002 94.8368 151.234 94.8368 147.697C94.8368 146.003 95.1506 144.713 95.7597 143.811C96.3688 142.908 97.3655 142.447 98.7314 142.447C101.334 142.447 102.644 144.197 102.644 147.697C102.644 151.197 101.352 153.002 98.7499 153.002H98.7683Z" fill="black"/>
<path d="M123.706 153.039C123.06 153.039 122.543 152.855 122.155 152.486C121.768 152.118 121.565 151.528 121.565 150.755V142.539H125.939V140.071H121.565V136.663H118.962L118.335 140.071H112.281V139.076C112.281 138.155 112.447 137.473 112.779 137.013C113.111 136.552 113.665 136.331 114.403 136.331C115.142 136.331 115.751 136.46 116.47 136.718L117.246 134.25C116.249 133.863 115.326 133.679 114.182 133.679C112.428 133.679 111.136 134.121 110.287 134.987C109.438 135.852 109.014 137.197 109.014 139.021V140.015L106.485 141.01V142.539H109.014V155.397H112.299V142.539H118.298V150.81C118.298 154.07 119.848 155.691 122.931 155.691C123.54 155.691 124.13 155.636 124.703 155.526C125.275 155.415 125.736 155.286 126.105 155.139V152.689C125.312 152.947 124.518 153.057 123.724 153.057L123.706 153.039Z" fill="black"/>
<path d="M51.0925 142.043H50.9448C49.8558 140.533 48.3054 139.777 46.3119 139.777C44.3185 139.777 42.8788 140.496 41.7898 141.914C40.7008 143.333 40.1655 145.285 40.1655 147.754C40.1655 150.222 40.7008 152.193 41.7713 153.574C42.8419 154.956 44.337 155.656 46.2566 155.656C48.2869 155.656 49.8189 154.901 50.8341 153.372H50.9633L50.871 155.269V155.38H54.1564V140.054H51.4432L51.1109 142.043H51.0925ZM51.0002 148.325C50.9448 150.019 50.6126 151.235 50.0219 151.972C49.4313 152.709 48.453 153.077 47.1241 153.077C44.7246 153.077 43.5064 151.309 43.5064 147.79C43.5064 146.04 43.8017 144.714 44.4108 143.811C45.0199 142.909 45.9059 142.448 47.0502 142.448C48.453 142.448 49.4497 142.872 50.0588 143.719C50.6679 144.567 50.9817 145.911 50.9817 147.754V148.325H51.0002Z" fill="black"/>
</svg>
