<svg width="106" height="44" viewBox="0 0 106 44" fill="none" xmlns="http://www.w3.org/2000/svg">
<g clip-path="url(#clip0_667_121)">
<path fill-rule="evenodd" clip-rule="evenodd" d="M0.150391 27.4105V25.297H5.87947V27.7566C5.87947 30.0078 6.77287 31.134 8.55842 31.134H8.58107C10.3502 31.134 11.2361 30.0114 11.2361 27.7676C11.2361 26.4854 10.8548 25.2836 10.0898 24.1611C9.32598 23.0386 8.41245 22.0123 7.34918 21.0824L4.47772 18.1974C3.29113 17.1882 2.29833 15.9377 1.4993 14.4471C0.699014 12.9553 0.298871 11.3038 0.298871 9.49259C0.298871 6.70514 1.05386 4.56733 2.56383 3.07671C4.07254 1.58609 6.12359 0.841394 8.71445 0.841394C11.3053 0.841394 13.2947 1.58609 14.6839 3.07549C16.073 4.56489 16.7676 6.7027 16.7676 9.48893V10.5944H11.484V9.15375C11.484 6.89528 10.5503 5.76543 8.68173 5.76543C6.81314 5.76543 5.87947 6.8965 5.87947 9.15619C5.87947 10.102 6.08332 11.0039 6.48976 11.862C6.89619 12.72 7.42342 13.4928 8.07145 14.1826C8.71948 14.8712 9.4342 15.5526 10.2144 16.2254C10.9945 16.8994 11.7658 17.6051 12.5259 18.3424C13.2859 19.0798 13.9893 19.8684 14.6348 20.7106C15.279 21.5516 15.8038 22.5462 16.2089 23.6918C16.6141 24.8388 16.8167 26.0844 16.8167 27.4312C16.8167 30.2113 16.1058 32.3443 14.6839 33.83C13.262 35.3157 11.255 36.0592 8.66286 36.0592C6.07074 36.0592 4.00333 35.3145 2.46191 33.8251C0.920476 32.3357 0.150391 30.1967 0.150391 27.4105Z" fill="white"/>
<path fill-rule="evenodd" clip-rule="evenodd" d="M25.5728 17.8254H28.2266C29.1351 17.8254 29.8171 17.5768 30.2726 17.0807C30.7268 16.5846 30.9546 15.7437 30.9546 14.5577V9.3936C30.9546 8.20769 30.7268 7.37158 30.2726 6.88283C29.8171 6.39408 29.1351 6.15032 28.2266 6.15032H25.5728V17.8254ZM19.9922 35.6738V1.22628H28.214C33.7606 1.22628 36.5352 4.07223 36.5352 9.7629V14.2372C36.5352 19.912 33.7631 22.7507 28.2203 22.7507H25.5728V35.6738H19.9922Z" fill="white"/>
<path fill-rule="evenodd" clip-rule="evenodd" d="M44.7193 16.7444H46.9012C48.0261 16.7444 48.8654 16.4641 49.4191 15.9034C49.9727 15.3428 50.2495 14.4067 50.2495 13.0928V9.70574C50.2659 7.33635 49.3234 6.15044 47.4221 6.15044H44.7193V16.7444ZM39.1387 35.6739V1.22518H47.5593C50.4307 1.22518 52.5283 1.87482 53.8483 3.17286C55.1695 4.4709 55.8301 6.46611 55.8301 9.15849V11.874C55.8301 15.4159 54.6121 17.7475 52.176 18.8688C54.6448 19.8792 55.8792 22.323 55.8792 26.2013V31.5019V31.7176C55.8792 33.4764 56.078 34.7952 56.4744 35.6739H50.817C50.4886 34.6989 50.3162 33.2924 50.2999 31.4532V26.0574C50.2999 24.4913 50.0142 23.3675 49.4442 22.6886C48.873 22.0085 47.9431 21.6697 46.6533 21.6697H44.7193V35.6739H39.1387Z" fill="white"/>
<path fill-rule="evenodd" clip-rule="evenodd" d="M59.5488 35.6742H65.1294V1.22543H59.5488V35.6742Z" fill="white"/>
<path fill-rule="evenodd" clip-rule="evenodd" d="M74.7779 30.7497H77.9778C78.9529 30.7497 79.6802 30.4974 80.1597 29.9928C80.6391 29.4882 80.8794 28.6118 80.8794 27.3626V24.3594C80.8794 22.7895 80.6026 21.7011 80.0477 21.0929C79.494 20.4835 78.5729 20.18 77.2832 20.18H74.7779V30.7497ZM74.7779 15.2548H76.9698C78.0985 15.2548 78.9416 14.9745 79.4978 14.4138C80.0552 13.8531 80.3333 12.9244 80.3333 11.6276V9.7055C80.3497 7.33611 79.4034 6.1502 77.4933 6.1502H74.7779V15.2548ZM69.1973 35.6749V1.22616H77.6305C80.5069 1.22616 82.6071 1.87457 83.9296 3.1714C85.252 4.46822 85.9139 6.46221 85.9139 9.15337V10.3783C85.9139 13.9177 84.7072 16.2323 82.2925 17.3207C85.0708 18.3774 86.4588 20.837 86.4588 24.6958V27.5064C86.4588 30.1646 85.7403 32.1915 84.302 33.5846C82.8625 34.9778 80.7548 35.6749 77.9778 35.6749H69.1973Z" fill="white"/>
<path fill-rule="evenodd" clip-rule="evenodd" d="M89.8067 35.6743V1.22557H105.035V6.15082H95.3873V15.7356H103.05V20.6597H95.3873V30.7491H105.035V35.6743H89.8067Z" fill="white"/>
<path fill-rule="evenodd" clip-rule="evenodd" d="M0 42.6885H105.113V37.9059H0V42.6885Z" fill="white"/>
</g>
<defs>
<clipPath id="clip0_667_121">
<rect width="106" height="43" fill="white" transform="translate(0 0.5)"/>
</clipPath>
</defs>
</svg>
